<svg width="25" height="37" viewBox="0 0 25 37" fill="none" xmlns="http://www.w3.org/2000/svg">
<path d="M24 12.8788C24 14.7993 23.2864 17.0548 22.1736 19.39C21.065 21.7164 19.582 24.0775 18.091 26.1972C16.6012 28.3153 15.1103 30.1828 13.9914 31.5212C13.4322 32.1901 12.9664 32.7261 12.6409 33.0945C12.5905 33.1515 12.5435 33.2045 12.5 33.2534C12.4565 33.2045 12.4095 33.1515 12.3591 33.0945C12.0336 32.7261 11.5678 32.1901 11.0086 31.5212C9.88969 30.1828 8.39879 28.3153 6.90897 26.1972C5.41803 24.0775 3.93496 21.7164 2.82637 19.39C1.71356 17.0548 1 14.7993 1 12.8788C1 8.93191 2.30314 5.844 4.37093 3.74482C6.44019 1.64414 9.30784 0.5 12.5 0.5C15.6922 0.5 18.5598 1.64414 20.6291 3.74482C22.6969 5.844 24 8.93191 24 12.8788Z" stroke="#45342C"/>
<line x1="24.5" y1="36.5" x2="1.5" y2="36.5" stroke="#45342C"/>
<circle cx="12.5" cy="11" r="4.5" stroke="#45342C"/>
</svg>
