<svg width="17" height="38" viewBox="0 0 17 38" fill="none" xmlns="http://www.w3.org/2000/svg">
<path d="M16.4983 1.13867C16.4536 7.80306 15.5164 13.8043 14.037 18.1554C13.278 20.3877 12.3855 22.1583 11.4189 23.3608C10.4486 24.5678 9.459 25.1387 8.5 25.1387C7.541 25.1387 6.55139 24.5678 5.58112 23.3608C4.61452 22.1583 3.72197 20.3877 2.96298 18.1554C1.4836 13.8043 0.546423 7.80306 0.501677 1.13867H0.506876H0.515778H0.524752H0.533798H0.542917H0.552107H0.56137H0.570704H0.580111H0.589588H0.599138H0.608758H0.61845H0.628213H0.638047H0.647951H0.657926H0.667972H0.678088H0.688275H0.698531H0.708858H0.719255H0.729721H0.740257H0.750862H0.761537H0.772281H0.783094H0.793976H0.804927H0.815947H0.827035H0.838192H0.849417H0.860711H0.872072H0.883501H0.894998H0.906563H0.918195H0.929895H0.941662H0.953496H0.965397H0.977365H0.9894H1.0015H1.01367H1.0259H1.0382H1.05057H1.063H1.0755H1.08807H1.1007H1.11339H1.12615H1.13898H1.15187H1.16482H1.17785H1.19093H1.20408H1.21729H1.23057H1.24392H1.25732H1.27079H1.28433H1.29793H1.31159H1.32531H1.3391H1.35295H1.36687H1.38084H1.39488H1.40899H1.42315H1.43738H1.45167H1.46602H1.48043H1.49491H1.50944H1.52404H1.5387H1.55342H1.5682H1.58305H1.59795H1.61292H1.62794H1.64303H1.65818H1.67338H1.68865H1.70398H1.71936H1.73481H1.75031H1.76588H1.7815H1.79719H1.81293H1.82873H1.84459H1.86051H1.87649H1.89253H1.90862H1.92478H1.94099H1.95726H1.97358H1.98997H2.00641H2.02291H2.03946H2.05608H2.07275H2.08947H2.10626H2.1231H2.14H2.15695H2.17396H2.19102H2.20815H2.22532H2.24256H2.25984H2.27719H2.29459H2.31204H2.32955H2.34712H2.36474H2.38241H2.40014H2.41792H2.43576H2.45365H2.47159H2.48959H2.50764H2.52575H2.54391H2.56212H2.58039H2.59871H2.61708H2.63551H2.65398H2.67251H2.6911H2.70973H2.72842H2.74716H2.76595H2.78479H2.80369H2.82263H2.84163H2.86068H2.87978H2.89893H2.91813H2.93738H2.95669H2.97604H2.99544H3.0149H3.0344H3.05395H3.07356H3.09321H3.11291H3.13267H3.15247H3.17232H3.19222H3.21217H3.23216H3.25221H3.2723H3.29245H3.31264H3.33288H3.35317H3.3735H3.39388H3.41431H3.43479H3.45532H3.47589H3.49651H3.51718H3.53789H3.55865H3.57946H3.60031H3.62121H3.64215H3.66315H3.68418H3.70527H3.72639H3.74757H3.76879H3.79005H3.81136H3.83272H3.85412H3.87556H3.89705H3.91859H3.94016H3.96179H3.98345H4.00516H4.02692H4.04871H4.07056H4.09244H4.11437H4.13634H4.15835H4.18041H4.20251H4.22465H4.24684H4.26907H4.29134H4.31365H4.336H4.3584H4.38083H4.40331H4.42583H4.4484H4.471H4.49364H4.51633H4.53905H4.56182H4.58463H4.60747H4.63036H4.65329H4.67626H4.69927H4.72231H4.7454H4.76853H4.79169H4.8149H4.83814H4.86143H4.88475H4.90811H4.93151H4.95495H4.97842H5.00194H5.02549H5.04908H5.07271H5.09638H5.12008H5.14382H5.1676H5.19142H5.21527H5.23916H5.26308H5.28705H5.31105H5.33508H5.35916H5.38326H5.40741H5.43159H5.4558H5.48006H5.50434H5.52866H5.55302H5.57741H5.60184H5.6263H5.6508H5.67533H5.6999H5.7245H5.74913H5.7738H5.7985H5.82324H5.84801H5.87281H5.89765H5.92252H5.94742H5.97236H5.99733H6.02233H6.04736H6.07243H6.09753H6.12266H6.14783H6.17302H6.19825H6.22351H6.2488H6.27412H6.29947H6.32486H6.35027H6.37572H6.40119H6.4267H6.45224H6.47781H6.50341H6.52904H6.5547H6.58038H6.6061H6.63185H6.65763H6.68343H6.70927H6.73514H6.76103H6.78695H6.81291H6.83889H6.86489H6.89093H6.917H6.94309H6.96921H6.99536H7.02154H7.04774H7.07397H7.10023H7.12651H7.15283H7.17917H7.20553H7.23193H7.25835H7.28479H7.31126H7.33776H7.36429H7.39084H7.41741H7.44401H7.47064H7.49729H7.52397H7.55067H7.5774H7.60415H7.63092H7.65773H7.68455H7.7114H7.73827H7.76517H7.79209H7.81904H7.84601H7.873H7.90001H7.92705H7.95412H7.9812H8.00831H8.03544H8.06259H8.08977H8.11696H8.14418H8.17143H8.19869H8.22598H8.25328H8.28061H8.30796H8.33533H8.36273H8.39014H8.41757H8.44503H8.4725H8.5H8.5275H8.55497H8.58243H8.60986H8.63727H8.66467H8.69204H8.71939H8.74672H8.77402H8.80131H8.82857H8.85582H8.88304H8.91023H8.93741H8.96456H8.99169H9.0188H9.04589H9.07295H9.09999H9.127H9.15399H9.18096H9.20791H9.23483H9.26173H9.2886H9.31545H9.34227H9.36908H9.39585H9.4226H9.44933H9.47603H9.50271H9.52936H9.55599H9.58259H9.60916H9.63571H9.66224H9.68874H9.71521H9.74165H9.76807H9.79447H9.82083H9.84717H9.87348H9.89977H9.92603H9.95226H9.97846H10.0046H10.0308H10.0569H10.083H10.1091H10.1351H10.1611H10.1871H10.213H10.239H10.2649H10.2907H10.3166H10.3424H10.3681H10.3939H10.4196H10.4453H10.471H10.4966H10.5222H10.5478H10.5733H10.5988H10.6243H10.6497H10.6751H10.7005H10.7259H10.7512H10.7765H10.8018H10.827H10.8522H10.8773H10.9025H10.9276H10.9526H10.9777H11.0027H11.0276H11.0526H11.0775H11.1023H11.1272H11.152H11.1768H11.2015H11.2262H11.2509H11.2755H11.3001H11.3247H11.3492H11.3737H11.3982H11.4226H11.447H11.4713H11.4957H11.5199H11.5442H11.5684H11.5926H11.6167H11.6408H11.6649H11.689H11.713H11.7369H11.7608H11.7847H11.8086H11.8324H11.8562H11.8799H11.9036H11.9273H11.9509H11.9745H11.9981H12.0216H12.0451H12.0685H12.0919H12.1153H12.1386H12.1619H12.1851H12.2083H12.2315H12.2546H12.2777H12.3007H12.3237H12.3467H12.3696H12.3925H12.4154H12.4382H12.4609H12.4837H12.5064H12.529H12.5516H12.5742H12.5967H12.6192H12.6416H12.664H12.6864H12.7087H12.7309H12.7532H12.7753H12.7975H12.8196H12.8416H12.8637H12.8856H12.9076H12.9294H12.9513H12.9731H12.9948H13.0165H13.0382H13.0598H13.0814H13.1029H13.1244H13.1459H13.1673H13.1886H13.2099H13.2312H13.2524H13.2736H13.2947H13.3158H13.3369H13.3578H13.3788H13.3997H13.4205H13.4413H13.4621H13.4828H13.5035H13.5241H13.5447H13.5652H13.5857H13.6061H13.6265H13.6468H13.6671H13.6874H13.7076H13.7277H13.7478H13.7678H13.7878H13.8078H13.8277H13.8475H13.8673H13.8871H13.9068H13.9264H13.946H13.9656H13.9851H14.0046H14.024H14.0433H14.0626H14.0819H14.1011H14.1202H14.1393H14.1584H14.1774H14.1963H14.2152H14.2341H14.2528H14.2716H14.2903H14.3089H14.3275H14.346H14.3645H14.3829H14.4013H14.4196H14.4379H14.4561H14.4742H14.4924H14.5104H14.5284H14.5464H14.5642H14.5821H14.5999H14.6176H14.6353H14.6529H14.6704H14.688H14.7054H14.7228H14.7402H14.7574H14.7747H14.7919H14.809H14.826H14.8431H14.86H14.8769H14.8937H14.9105H14.9273H14.9439H14.9605H14.9771H14.9936H15.01H15.0264H15.0427H15.059H15.0752H15.0914H15.1075H15.1235H15.1395H15.1554H15.1713H15.1871H15.2028H15.2185H15.2341H15.2497H15.2652H15.2806H15.296H15.3114H15.3266H15.3418H15.357H15.3721H15.3871H15.402H15.417H15.4318H15.4466H15.4613H15.476H15.4906H15.5051H15.5196H15.534H15.5483H15.5626H15.5768H15.591H15.6051H15.6192H15.6331H15.647H15.6609H15.6747H15.6884H15.7021H15.7157H15.7292H15.7427H15.7561H15.7694H15.7827H15.7959H15.8091H15.8222H15.8352H15.8481H15.861H15.8738H15.8866H15.8993H15.9119H15.9245H15.937H15.9494H15.9618H15.9741H15.9863H15.9985H16.0106H16.0226H16.0346H16.0465H16.0583H16.0701H16.0818H16.0934H16.105H16.1165H16.1279H16.1393H16.1506H16.1618H16.173H16.1841H16.1951H16.206H16.2169H16.2277H16.2385H16.2491H16.2597H16.2703H16.2807H16.2911H16.3015H16.3117H16.3219H16.332H16.3421H16.352H16.362H16.3718H16.3815H16.3912H16.4009H16.4104H16.4199H16.4293H16.4386H16.4479H16.4571H16.4662H16.4752H16.4842H16.4931H16.4983Z" stroke="#45342C"/>
<line x1="8.5" y1="24.6387" x2="8.5" y2="35.6387" stroke="#45342C"/>
<path d="M15.1279 36.6939C15.2578 36.783 15.3512 36.8617 15.4145 36.9264C15.3792 36.9388 15.3364 36.952 15.2848 36.9654C14.9605 37.0497 14.4571 37.1025 13.7826 37.1304C12.8853 37.1675 11.764 37.1588 10.4949 37.1488C9.86339 37.1439 9.19529 37.1387 8.5 37.1387C7.81599 37.1387 7.14456 37.1437 6.49923 37.1486C5.17183 37.1586 3.9548 37.1678 2.96561 37.1304C2.22854 37.1024 1.6573 37.0494 1.28028 36.9622C1.22008 36.9482 1.16892 36.9343 1.12578 36.9209C1.19855 36.8594 1.29797 36.7877 1.42797 36.7084C1.81032 36.475 2.38312 36.22 3.10271 35.9837C4.53835 35.5122 6.48575 35.1387 8.5 35.1387C10.5131 35.1387 12.331 35.5118 13.6345 35.9793C14.2883 36.2138 14.7951 36.4658 15.1279 36.6939ZM0.988676 37.0662C0.988653 37.0662 0.988863 37.0657 0.989374 37.0648L0.988676 37.0662Z" stroke="#45342C"/>
</svg>
