<svg width="49" height="36" viewBox="0 0 49 36" fill="none" xmlns="http://www.w3.org/2000/svg">
<path d="M8.52174 12.8256L9.96018 17.1842L10.0735 17.5275H10.435H15.068L11.3266 20.2037L11.0273 20.4177L11.1426 20.767L12.5759 25.1099L8.81263 22.418L8.52174 22.2099L8.23085 22.418L4.4676 25.1099L5.90085 20.767L6.01614 20.4177L5.71693 20.2037L1.97552 17.5275H6.60849H6.97L7.0833 17.1842L8.52174 12.8256Z" stroke="#45342C"/>
<path d="M35.3385 5.73673L34.5772 9.45482L34.5049 9.80792L34.817 9.98813L38.1485 11.9116L34.3641 12.2637L33.995 12.2981L33.9206 12.6613L33.1646 16.3533L31.5594 12.8604L31.4114 12.5385L31.0587 12.5714L27.2312 12.9276L30.0505 10.4269L30.3279 10.1809L30.1731 9.84406L28.5859 6.39062L31.9174 8.31404L32.2295 8.49425L32.4992 8.25509L35.3385 5.73673Z" stroke="#45342C"/>
<path d="M42.6087 17.1411L43.5749 19.7434L43.6959 20.0694H44.0436H46.9689L44.6622 21.5361L44.321 21.753L44.4617 22.132L45.3793 24.6033L42.877 23.0123L42.6087 22.8417L42.3404 23.0123L39.8381 24.6033L40.7557 22.132L40.8964 21.753L40.5552 21.5361L38.2485 20.0694H41.1738H41.5215L41.6425 19.7434L42.6087 17.1411Z" stroke="#45342C"/>
<path d="M13.8478 21.2979C23.2217 24.8775 24.5 32.1114 23.9674 35.2809" stroke="#45342C"/>
<path d="M29.8261 15.7046C23.9377 23.2061 25.4098 30.0167 26.8819 32.4843" stroke="#45342C"/>
<path d="M38.3478 22.4165C32.2481 24.9223 30.1251 28.6809 29.8261 30.247" stroke="#45342C"/>
</svg>
