<svg width="43" height="37" viewBox="0 0 43 37" fill="none" xmlns="http://www.w3.org/2000/svg">
<path fill-rule="evenodd" clip-rule="evenodd" d="M41.5 21.6385C41.5 29.3705 35.232 35.6385 27.5 35.6385C24.1413 35.6385 21.0589 34.4558 18.6465 32.4842C18.355 32.6794 18.0544 32.863 17.7457 33.0342C20.3683 35.2812 23.7756 36.6385 27.5 36.6385C35.7843 36.6385 42.5 29.9228 42.5 21.6385C42.5 13.3543 35.7843 6.63855 27.5 6.63855C19.2157 6.63855 12.5 13.3543 12.5 21.6385C12.5 25.4428 13.9162 28.9163 16.2501 31.5606C16.5602 31.4105 16.8612 31.2462 17.1523 31.0687C14.8835 28.5805 13.5 25.2711 13.5 21.6385C13.5 13.9066 19.768 7.63855 27.5 7.63855C35.232 7.63855 41.5 13.9066 41.5 21.6385Z" fill="#45342C"/>
<path fill-rule="evenodd" clip-rule="evenodd" d="M16.6529 10.3766C15.3588 9.89924 13.9599 9.63855 12.5 9.63855C5.87258 9.63855 0.5 15.0111 0.5 21.6385C0.5 28.266 5.87258 33.6385 12.5 33.6385C19.1274 33.6385 24.5 28.266 24.5 21.6385C24.5 17.2467 22.1406 13.4059 18.6202 11.3144C18.3483 11.5378 18.0849 11.7712 17.8306 12.0142C21.2117 13.8908 23.5 17.4975 23.5 21.6385C23.5 27.7137 18.5751 32.6385 12.5 32.6385C6.42487 32.6385 1.5 27.7137 1.5 21.6385C1.5 15.5634 6.42487 10.6385 12.5 10.6385C13.6717 10.6385 14.8006 10.8218 15.8597 11.1611C16.115 10.8905 16.3795 10.6289 16.6529 10.3766Z" fill="#45342C"/>
<path d="M15.7552 2.8007L16.3381 3.78807L16.665 2.68906C16.9726 1.65492 17.328 1.16406 17.6133 0.963614C17.8506 0.796901 18.0906 0.795427 18.3805 0.953496C18.6967 1.12596 19.0335 1.47843 19.3202 1.94712C19.6031 2.40976 19.8091 2.94004 19.893 3.41593C20.0476 4.29264 19.7112 4.98046 19.0973 5.64303C18.7864 5.97855 18.4148 6.29529 18.0153 6.61613C17.8947 6.71298 17.7699 6.81148 17.6438 6.91102C17.4398 7.07209 17.2322 7.23588 17.0335 7.39985C16.8321 7.33376 16.6333 7.27103 16.4379 7.20936C15.7228 6.98371 15.053 6.77235 14.4652 6.46291C13.6863 6.05293 13.1558 5.51856 12.9994 4.63147C12.9185 4.1727 12.9553 3.60956 13.0978 3.07196C13.2413 2.53082 13.4779 2.06764 13.7501 1.7819C14.0123 1.50664 14.2566 1.43684 14.501 1.508C14.7943 1.59341 15.2348 1.91932 15.7552 2.8007Z" stroke="#45342C"/>
</svg>
